<svg viewBox="0 0 520 160" xmlns="http://www.w3.org/2000/svg" font-family="'JetBrains Mono',monospace">
  <defs>
    <linearGradient id="bg" x1="0" y1="0" x2="1" y2="1"><stop offset="0%" stop-color="#060A0F"/><stop offset="100%" stop-color="#0C1422"/></linearGradient>
    <linearGradient id="g1" x1="0" y1="0" x2="1" y2="0"><stop offset="0%" stop-color="#38BDF8"/><stop offset="100%" stop-color="#34D399"/></linearGradient>
    <filter id="glow"><feGaussianBlur stdDeviation="3" result="b"/><feMerge><feMergeNode in="b"/><feMergeNode in="SourceGraphic"/></feMerge></filter>
  </defs>
  <rect width="520" height="160" rx="14" fill="url(#bg)"/>
  <rect width="520" height="160" rx="14" fill="none" stroke="#38BDF8" stroke-width="1" stroke-opacity="0.25"/>
  <g transform="translate(22,20)" filter="url(#glow)">
    <circle cx="60" cy="60" r="44" fill="none" stroke="#38BDF8" stroke-width="1" stroke-opacity="0.2" stroke-dasharray="3 3"/>
    <circle cx="60" cy="60" r="28" fill="none" stroke="#34D399" stroke-width="1.5" stroke-opacity="0.35"/>
    <circle cx="60" cy="60" r="14" fill="#060A0F" stroke="url(#g1)" stroke-width="2"/>
    <text x="60" y="66" text-anchor="middle" fill="url(#g1)" font-size="12" font-weight="800" filter="url(#glow)">G</text>
    <!-- Browser/navigation indicators -->
    <rect x="14" y="14" width="28" height="20" rx="3" fill="none" stroke="#38BDF8" stroke-width="1" stroke-opacity="0.6"/>
    <text x="28" y="28" text-anchor="middle" fill="#38BDF8" font-size="7">URL</text>
    <rect x="78" y="86" width="28" height="20" rx="3" fill="none" stroke="#34D399" stroke-width="1" stroke-opacity="0.6"/>
    <text x="92" y="100" text-anchor="middle" fill="#34D399" font-size="7">CLICK</text>
    <!-- Arrow -->
    <line x1="28" y1="34" x2="46" y2="48" stroke="#38BDF8" stroke-width="1.5" stroke-opacity="0.6"/>
    <line x1="72" y1="72" x2="88" y2="86" stroke="#34D399" stroke-width="1.5" stroke-opacity="0.6"/>
  </g>
  <text x="156" y="54" fill="url(#g1)" font-size="23" font-weight="800" letter-spacing="-0.5" filter="url(#glow)">GEMINI·UI·NAVIGATOR</text>
  <text x="157" y="76" fill="#2A3A3A" font-size="12.5" letter-spacing="0.5">Voice Web Browser Agent — Gemini Live API · Vision · Google Cloud</text>
  <rect x="156" y="86" width="340" height="1.5" rx="1" fill="url(#g1)" opacity="0.3"/>
  <g transform="translate(156,100)">
    <rect x="0"   y="0" width="62" height="22" rx="5" fill="#38BDF8" fill-opacity="0.1" stroke="#38BDF8" stroke-width="0.7" stroke-opacity="0.5"/>
    <text x="31"  y="15" text-anchor="middle" fill="#38BDF8" font-size="10">Python</text>
    <rect x="68"  y="0" width="88" height="22" rx="5" fill="#34D399" fill-opacity="0.1" stroke="#34D399" stroke-width="0.7" stroke-opacity="0.5"/>
    <text x="112" y="15" text-anchor="middle" fill="#34D399" font-size="10">Gemini Live</text>
    <rect x="162" y="0" width="60" height="22" rx="5" fill="#38BDF8" fill-opacity="0.1" stroke="#38BDF8" stroke-width="0.7" stroke-opacity="0.5"/>
    <text x="192" y="15" text-anchor="middle" fill="#38BDF8" font-size="10">Vision</text>
    <rect x="228" y="0" width="78" height="22" rx="5" fill="#34D399" fill-opacity="0.1" stroke="#34D399" stroke-width="0.7" stroke-opacity="0.5"/>
    <text x="267" y="15" text-anchor="middle" fill="#34D399" font-size="10">Playwright</text>
  </g>
  <text x="156" y="148" fill="#2A3A3A" font-size="10">Turbo31150  ·  MIT  ·  Google Cloud  ·  voice-driven navigation  ·  web automation</text>
</svg>
